<?xml version="1.0" standalone="no"?>
<!DOCTYPE svg PUBLIC "-//W3C//DTD SVG 20010904//EN"
 "http://www.w3.org/TR/2001/REC-SVG-20010904/DTD/svg10.dtd">
<svg version="1.0" xmlns="http://www.w3.org/2000/svg"
 width="696.000000pt" height="378.000000pt" viewBox="0 0 696.000000 378.000000"
 preserveAspectRatio="xMidYMid meet">

<g transform="translate(0.000000,378.000000) scale(0.100000,-0.100000)"
fill="#000000" stroke="none">
<path d="M454 3380 c-102 -15 -196 -84 -246 -180 -33 -65 -33 -204 0 -272 32
-65 94 -125 160 -156 l57 -27 2950 0 2950 0 56 26 c118 56 191 165 191 287 0
170 -112 298 -284 323 -76 10 -5759 10 -5834 -1z"/>
<path d="M3334 820 c-102 -15 -196 -84 -246 -180 -33 -65 -33 -204 0 -272 32
-65 94 -125 160 -156 l57 -27 1510 0 1510 0 56 26 c118 56 191 165 191 287 0
170 -112 298 -284 323 -76 10 -2880 10 -2954 -1z"/>
</g>
</svg>
